<svg height="130" viewBox="0 0 352 130" width="352" xmlns="http://www.w3.org/2000/svg" xmlns:xlink="http://www.w3.org/1999/xlink"><linearGradient id="a" gradientUnits="objectBoundingBox" x1=".071" x2="1.049" y1=".5" y2=".5"><stop offset="0" stop-color="#2e1963"/><stop offset=".392" stop-color="#301b65"/><stop offset="1" stop-color="#7362a1"/></linearGradient><clipPath id="b"><rect height="130" rx="7" width="352"/></clipPath><linearGradient id="c" gradientUnits="objectBoundingBox" x1=".865" x2=".168" y1=".053" y2=".907"><stop offset="0" stop-color="#ffc175"/><stop offset="1" stop-color="#ffab00"/></linearGradient><linearGradient id="d" gradientUnits="objectBoundingBox" x1=".5" x2=".5" y1=".11" y2=".862"><stop offset="0" stop-color="#fffa75"/><stop offset="1" stop-color="#ff9a00"/></linearGradient><linearGradient id="e" gradientUnits="objectBoundingBox" x1=".362" x2=".727" y1=".205" y2=".985"><stop offset="0" stop-color="#fff"/><stop offset="1" stop-color="#ffc175"/></linearGradient><linearGradient id="f" gradientUnits="objectBoundingBox" x1=".371" x2=".614" y1=".189" y2=".773"><stop offset="0"/><stop offset="1" stop-color="#ffc857"/></linearGradient><linearGradient id="g" gradientUnits="objectBoundingBox" x1=".5" x2=".5" y1="1.117" y2=".024"><stop offset="0" stop-color="#ffc175"/><stop offset="1" stop-color="#fff"/></linearGradient><linearGradient id="h" x1=".49" x2=".422" xlink:href="#f" y1=".461" y2=".113"/><linearGradient id="i" gradientUnits="objectBoundingBox" x1=".5" x2=".5" y1=".908" y2=".054"><stop offset="0" stop-color="#ffd700"/><stop offset="1" stop-color="#ff9a00"/></linearGradient><linearGradient id="j" gradientUnits="objectBoundingBox" x1=".5" x2=".774" y1=".106" y2="1"><stop offset="0" stop-color="#ffc175"/><stop offset="1" stop-color="#ff9a00"/></linearGradient><linearGradient id="k" x1=".563" x2=".262" xlink:href="#f" y1=".613" y2=".076"/><clipPath id="l"><path d="m-.001.232h68v78h-68z"/></clipPath><g><g clip-path="url(#b)"><path d="m0 0h365v135h-365z" fill="url(#a)" transform="translate(-5 -2)"/><g opacity=".2" transform="translate(251.115 27.003)"><ellipse cx="65.275" cy="67.352" fill="url(#c)" rx="65.275" ry="67.352"/><ellipse cx="62.489" cy="64.478" fill="url(#d)" rx="62.489" ry="64.478" transform="translate(2.786 2.875)"/><ellipse cx="62.489" cy="64.478" fill="url(#e)" rx="62.489" ry="64.478" transform="translate(2.786 2.875)"/><path d="m166.469 191.237a64.173 64.173 0 0 1 -8.914-32.728c0-34.679 27.342-62.891 60.951-62.891a59.484 59.484 0 0 1 43.172 18.52c-1.978 3.748-4.1 7.436-6.321 11a48.183 48.183 0 0 0 -36.851-17.229c-27.041 0-49.04 22.7-49.04 50.6a51.177 51.177 0 0 0 8.927 29.1c-3.915 1.363-7.913 2.58-11.924 3.628z" fill="url(#f)" transform="translate(-153.231 -91.157)"/><path d="m310.849 218.026q-.274 0-.546-.005a5.309 5.309 0 0 0 -5.051 3.506 48.8 48.8 0 0 1 -35.909 31.023 5.406 5.406 0 0 0 -4.169 4.277l-.029.138a6.673 6.673 0 0 0 7.82 8.019c20.575-4.543 37.293-19.813 44.382-39.867a5.328 5.328 0 0 0 -5.2-7.117q-.647.026-1.298.026z" fill="url(#g)" opacity=".35" transform="translate(-194.93 -136.271)"/><path d="m163.816 154.795q1.158 0 2.3.082a4.9 4.9 0 0 0 5.113-4.2c3.657-23.791 23.618-41.98 47.7-41.98a46.757 46.757 0 0 1 7.824.658 7.625 7.625 0 0 0 8-3.844l.064-.117a5.679 5.679 0 0 0 -3.575-8.342 59.2 59.2 0 0 0 -12.313-1.289c-30.4 0-55.6 23.009-60.123 53.071a5.117 5.117 0 0 0 4.948 5.962z" fill="url(#h)" transform="translate(-153.695 -91.21)"/><ellipse cx="47.502" cy="49.014" fill="url(#i)" rx="47.502" ry="49.014" transform="translate(17.773 18.338)"/><ellipse cx="43.824" cy="45.219" fill="url(#j)" rx="43.824" ry="45.219" transform="translate(21.451 22.133)"/><ellipse cx="43.824" cy="45.219" fill="url(#k)" rx="43.824" ry="45.219" transform="translate(21.451 22.133)"/><g clip-path="url(#l)" fill="#b47935" fill-rule="evenodd" transform="translate(30.885 27.765)"><path d="m28.346 1.04 22.098-.04-21.744 36.456c-4.058 6.892-7.247 11.306-12.61 10.944h-16.09z" transform="translate(3.92 2.346)"/><path d="m218.07 406.38-22.07.04 21.715-36.456c4.053-6.892 7.238-11.306 12.595-10.943h16.069z" transform="translate(-179.469 -332.62)"/></g></g></g><g fill="#fff"><text font-family="BasisGrotesquePro-Bold, Basis Grotesque Pro" font-size="20" font-weight="700" transform="translate(23 50)"><tspan x="0" y="0">HaggleX</tspan><tspan x="0" y="23">Marketplace</tspan></text><text font-family="BasisGrotesquePro-Regular, Basis Grotesque Pro" font-size="9" transform="translate(23 94)"><tspan x="0" y="0">Trade crypto and giftcard on HaggleX securely</tspan></text></g></g></svg>