<svg height="59" viewBox="0 0 71 59" width="71" xmlns="http://www.w3.org/2000/svg"><g transform="translate(-208.928 -753)"><g fill="none" opacity="0" stroke="#707070"><path d="m208.928 753h71v59h-71z" stroke="none"/><path d="m209.428 753.5h70v58h-70z" fill="none"/></g><g fill="#c4c4c4"><text font-family="BasisGrotesquePro-Regular, Basis Grotesque Pro" font-size="9" transform="translate(218.037 799)"><tspan x="0" y="0">Cryptosave</tspan></text><path d="m20.508 11.952a6.242 6.242 0 0 0 1.92-2.569 8.446 8.446 0 0 1 .42 2.734 8.134 8.134 0 0 1 -1.732 5.213 7.191 7.191 0 0 1 -1.2 1.189c-.066.051-.127.1-.184.137v1.628a2.341 2.341 0 0 1 -2.341 2.341h-.78a1.561 1.561 0 0 1 -1.561-1.561h-3.126a1.561 1.561 0 0 1 -1.561 1.561h-.78a2.341 2.341 0 0 1 -2.341-2.341v-.333c-.135-.043-.286-.1-.448-.162a6.491 6.491 0 0 1 -2.188-1.454 7.821 7.821 0 0 1 -1.706-2.845.67.67 0 0 0 -.421-.439 2.039 2.039 0 0 1 -1.479-1.962v-1.239a2.013 2.013 0 0 1 1.46-1.936.685.685 0 0 0 .422-.464 6.052 6.052 0 0 1 1.358-2.327 9.075 9.075 0 0 1 1.76-1.371c.151-.091.289-.168.408-.232v-2.931a1.185 1.185 0 0 1 .75-1.1 1.209 1.209 0 0 1 1.289.235 10.956 10.956 0 0 0 1.47 1.183 3.723 3.723 0 0 0 1.538.653h.008a6.256 6.256 0 0 0 -1.027 4.221 3.837 3.837 0 0 0 2.473 3l3.728 1.544a3.837 3.837 0 0 0 3.871-.373zm-13.656-1.033a1.17 1.17 0 1 0 -1.17-1.17 1.17 1.17 0 0 0 1.17 1.17z" transform="translate(229.113 761.024)"/><path d="m8.329 4.81a4.409 4.409 0 1 1 6.835 5.082c-.612.483-1.881.327-3.3 0a4.306 4.306 0 0 1 -2.383-1.306c-.953-.737-1.341-.866-1.432-1.64a4.384 4.384 0 0 1 .013-1.126zm0 0-.2.645q.046-.2.112-.4.041-.125.088-.245z" transform="translate(233.048 761.373)"/></g></g></svg>