<svg height="24.153" viewBox="0 0 80.22 24.153" width="80.22" xmlns="http://www.w3.org/2000/svg" xmlns:xlink="http://www.w3.org/1999/xlink"><linearGradient id="a" gradientUnits="objectBoundingBox" x1=".5" x2=".5" y2="1"><stop offset="0" stop-color="#f4b200"/><stop offset="1" stop-color="#fff"/></linearGradient><g transform="translate(-3614.023 -3915.79)"><path d="m3694 3917.736-1.783 1.069-1.822-1.069-2.694 3.444-1.743-2.375-1.584 2.85-3.169-3.919-2.457 6.294-2.535-2.85-2.219-3.444-1.584 1.069h-4.437l-3.8 2.85-2.535-.475-1.9 2.85-2.218-2.85-1.9 2.85-1.584-2.85-1.109 1.662-1.427-4.038-1.9-2.137-.951 2.137-1.585-1.069-.634 1.069-1.43 2.376-1.268-2.375-.792 2.85-1.268-2.85-2.535-2.137-.634 2.137-1.584 2.375-2.376-2.375-1.268 2.85-2.377-2.85-1.584 2.375-2.694 4.275-2.693 1.9-.792-1.9-1.743 1.9-1.426-3.325-1.109-5.225-.792 2.375-.951 1.662-.951-1.662-.951-3.444-.706 2.374v19.834h79.494z" fill="url(#a)" opacity=".2"/><path d="m3694 3917.676-1.783 1.009-1.822-1.009-2.694 3.251-1.743-2.242-1.584 2.691-3.169-3.7-2.457 5.942-2.535-2.691-2.219-3.251-1.584 1.009h-4.437l-3.8 2.691-2.535-.449-1.9 2.691-2.218-2.691-1.9 2.691-1.584-2.691-1.109 1.57-1.427-3.812-1.9-2.018-.951 2.018-1.585-1.009-.634 1.009-1.426 2.242-1.268-2.242-.792 2.691-1.268-2.691-2.535-2.018-.634 2.018-1.584 2.242-2.376-2.242-1.268 2.691-2.377-2.691-1.584 2.242-2.694 4.036-2.693 1.794-.792-1.794-1.743 1.794-1.426-3.139-1.109-4.933-.792 2.242-.951 1.57-.951-1.57-.951-3.251-.706 2.24" fill="none" opacity=".46" stroke="#eeae00"/></g></svg>