<svg height="60" viewBox="0 0 74 60" width="74" xmlns="http://www.w3.org/2000/svg"><g transform="translate(-339 -753)"><text fill="#c4c4c4" font-family="BasisGrotesquePro-Regular, Basis Grotesque Pro" font-size="9" transform="translate(366 801)"><tspan x="0" y="0">More</tspan></text><g fill="none" opacity="0" stroke="#707070"><path d="m339 753h74v60h-74z" stroke="none"/><path d="m339.5 753.5h73v59h-73z" fill="none"/></g><rect fill="#c4c4c4" height="20" rx="4" width="20" x="366" y="766.55"/><g fill="#fff"><path d="m20 15h-3v-3a1 1 0 0 0 -2 0v3h-3a1 1 0 0 0 0 2h3v3a1 1 0 0 0 2 0v-3h3a1 1 0 0 0 0-2z" transform="translate(360.166 760.384)"/><path d="m20 15h-3v-3a1 1 0 0 0 -1-1v10a1 1 0 0 0 1-1v-3h3a1 1 0 0 0 0-2z" transform="translate(359.92 760.384)"/></g></g></svg>