<svg height="59" viewBox="0 0 68 59" width="68" xmlns="http://www.w3.org/2000/svg"><g fill="none" opacity="0" stroke="#707070"><path d="m0 0h68v59h-68z" stroke="none"/><path d="m.5.5h67v58h-67z" fill="none"/></g><circle cx="34.5" cy="25.05" fill="#2e1963" r="18.5"/><g transform="matrix(0 -1 1 0 24.989 35.361)"><path d="m0 0h19.208v19.208h-19.208z" fill="none"/><path d="m7.615 4.524a.84.84 0 0 1 -1.188 0l-1.656-1.655v9.185a.84.84 0 0 1 -1.681 0v-9.185l-1.655 1.655a.84.84 0 0 1 -1.189-1.188l3.091-3.09a.844.844 0 0 1 .128-.1c.021-.014.044-.024.066-.036a.812.812 0 0 1 .08-.042.782.782 0 0 1 .089-.031.711.711 0 0 1 .07-.021.844.844 0 0 1 .329 0c.025 0 .047.014.071.021a.828.828 0 0 1 .086.027.792.792 0 0 1 .08.042.65.65 0 0 1 .064.036.856.856 0 0 1 .126.1l3.089 3.094a.841.841 0 0 1 0 1.188zm7.5 6.316a.84.84 0 0 0 -1.188 0l-1.651 1.66v-9.188a.84.84 0 0 0 -1.681 0v9.188l-1.656-1.66a.84.84 0 0 0 -1.188 1.188l3.091 3.09a.852.852 0 0 0 .128.1c.021.014.043.023.065.035a.838.838 0 0 0 .08.042.809.809 0 0 0 .085.026c.024.007.047.016.072.022a.854.854 0 0 0 .16.016h.006a.851.851 0 0 0 .16-.016c.025 0 .048-.014.071-.021a.5.5 0 0 0 .165-.069c.022-.012.045-.022.066-.035a.853.853 0 0 0 .128-.1l3.09-3.09a.84.84 0 0 0 0-1.188z" fill="#fff" transform="translate(1.92 1.921)"/></g></svg>