<svg height="40" viewBox="0 0 40 40" width="40" xmlns="http://www.w3.org/2000/svg"><rect fill="#f2f2f2" height="40" rx="20" width="40"/><g transform="translate(6.084 6.083)"><circle cx="13.916" cy="13.916" fill="#00a478" r="13.916"/><g fill="#fff"><path d="m22.6 20.873v-3.556h-4.7v-3.117h13.126v3.161h-4.7v3.512z" transform="translate(-10.262 -8.274)"/><path d="m21.773 25.751c4.917 0 7.463 1.361 7.77 1.8-.307.439-2.81 1.1-7.77 1.1-4.917 0-7.463-.658-7.77-1.1.307-.483 2.853-1.8 7.77-1.8zm0-.351c-4.7 0-8.473.966-8.473 2.151s3.775 2.149 8.473 2.149 8.473-.966 8.473-2.151-3.776-2.149-8.473-2.149z" transform="translate(-7.681 -14.557)"/><path d="m4.388 2.646v-2.458c-.615-.044-1.274-.088-1.932-.088-.615 0-1.185 0-1.756.044v2.456c.527 0 1.141.044 1.756.044a14.177 14.177 0 0 0 1.932 0z" transform="translate(11.68 11.05)"/><path d="m2.356 9.088c-.615 0-1.185 0-1.756-.044v6.541h3.688v-6.585c-.615.044-1.274.088-1.932.088z" transform="translate(11.736 6.057)"/></g></g></svg>