<svg height="59" viewBox="0 0 72 59" width="72" xmlns="http://www.w3.org/2000/svg"><g transform="translate(-114.284 -754)"><g fill="#c4c4c4"><text font-family="BasisGrotesquePro-Regular, Basis Grotesque Pro" font-size="9" transform="translate(138.284 800)"><tspan x="0" y="0">Wallet</tspan></text><path d="m11.4 19.859v-9.449a2.293 2.293 0 0 1 2.215-2.365h10.218v-1.18a2.286 2.286 0 0 0 -2.194-2.365h-15.982a2.314 2.314 0 0 0 -2.282 2.326v16.617a2.314 2.314 0 0 0 2.282 2.326h15.977a2.283 2.283 0 0 0 2.194-2.369v-1.18h-10.219a2.292 2.292 0 0 1 -2.209-2.361z" transform="translate(134.633 760)"/><path d="m17.227 12.839v7.754a.862.862 0 0 0 .83.886h9.7a.862.862 0 0 0 .83-.886v-7.754a.862.862 0 0 0 -.83-.886h-9.7a.862.862 0 0 0 -.83.886zm4 5.644a1.777 1.777 0 1 1 1.551-1.656 1.72 1.72 0 0 1 -1.552 1.656z" transform="translate(131 758.418)"/></g><g fill="none" opacity="0" stroke="#707070"><path d="m114.284 754h72v59h-72z" stroke="none"/><path d="m114.784 754.5h71v58h-71z" fill="none"/></g></g></svg>